<svg version="1.1" xmlns="http://www.w3.org/2000/svg" viewBox="117.00932642487047 332.32320000000004 342.4663212435233 129.888" style="max-height: 500px" width="342.4663212435233" height="129.888">
 

 <g>
  <title>Layer 1</title>
  <path class="st4" d="m136.26,348.08c15.38,-0.51 30.76,-1.01 46.16,-1.07c84.63,-0.34 169.29,-0.61 253.9,1.07c7.7,0.02 15.42,-0.01 23.12,0l0,96.78c-7.7,-0.08 -15.42,0.11 -23.12,0l-9.95,0.5c-93.37,-0.69 -186.77,-0.93 -280.14,-0.03l-9.96,-0.47c-6.12,0.1 -12.28,-0.08 -18.4,0l0,-96.78c6.13,-0.02 12.27,0.02 18.4,0l-0.01,0z" fill="#212221" id="svg_1"/>
  <path class="st2" d="m436.32,444.86l0,13.22l-295.34,0c-1.4,-0.47 -4.13,1.28 -4.65,-0.31c-0.91,-2.81 0.52,-9.62 -0.07,-12.91c99.42,-1.67 200.66,-1.36 300.06,0z" fill="#da7034" id="svg_2"/>
  <path class="st1" d="m136.26,348.08l0,-13.69l300.06,0l0,13.69c-100,-0.23 -200.06,-0.35 -300.06,0z" fill="#da7133" id="svg_3"/>
  <path class="st6" d="m436.32,458.08l-295.34,0l295.34,0z" fill="#deb396" id="svg_4"/>
  <path class="st10" d="m389.61,434.95c1.35,-0.6 2.08,2.11 0.94,2.83l-18.41,0.24l-19.34,-38.48c-0.71,-0.19 -0.78,0.19 -1.18,0.46c-1,0.69 -5.42,5.41 -5.42,6.38l0,31.16c0,0.05 -0.66,0.71 -0.71,0.71l-14.63,0c-0.08,0 -0.83,-0.73 -0.94,-0.95l-0.23,-84.25c0.24,-1.3 0.89,-1.53 2.09,-1.69c2.02,-0.27 10.9,-0.32 12.75,0.03c0.52,0.1 1.66,0.81 1.66,1.17l0,26.2l22.65,-27.14c5.17,0 10.69,-1.11 15.81,-0.74c0.87,0.06 4.72,0.47 4.93,1.21l-25.96,33.05c-0.11,1.06 2.84,6.41 3.54,7.78c7.21,14.1 14.84,28.11 22.42,42.01l0.03,0.02z" fill="#fafcfc" id="svg_5"/>
  <path class="st8" d="m155.61,384.91l26.66,0c0.05,0 0.71,-0.66 0.71,-0.71l0,-32.1c0,-0.05 0.66,-0.71 0.71,-0.71l14.15,0c0.05,0 0.71,0.66 0.71,0.71l0,85.45c0,0.05 -0.66,0.71 -0.71,0.71l-14.15,0c-0.05,0 -0.71,-0.66 -0.71,-0.71l0,-34.93c0,-0.05 -0.66,-0.71 -0.71,-0.71l-26.66,0c0.15,0.46 -0.47,1.02 -0.47,1.18l0,34.46c0,0.05 -0.66,0.71 -0.71,0.71l-14.15,0c-0.05,0 -0.71,-0.66 -0.71,-0.71l0,-85.45c0,-0.05 0.66,-0.71 0.71,-0.71l14.15,0c0.05,0 0.71,0.66 0.71,0.71l0,31.63c0,0.16 0.62,0.72 0.47,1.18z" fill="#f8fafb" id="svg_6"/>
  <path class="st0" d="m260.82,375.46c1.14,0.25 0.98,-0.58 1.33,-1.24c8.67,-16.16 24.31,-26.18 43.11,-22.7c4.77,0.88 12.37,3.9 15.97,7.16c0.88,0.8 2.5,2.45 1.62,3.55l-9.89,11.73c-19.9,-12.55 -39.89,3.28 -38.48,25.36c1.1,17.12 16.33,28.98 33.04,22.63c2.74,-1.04 3.96,-2.56 6.31,-3.95l10.68,13.38c-3.1,2.39 -5.46,4.79 -9.02,6.57c-16.93,8.45 -36.06,3.84 -48.31,-10.09c-5.32,-6.05 -7.07,-12.63 -10.14,-19.83c-2.79,-11.04 -0.83,-21.6 2.84,-31.93l0.94,-0.65l0,0.01z" fill="#db7234" id="svg_7"/>
  <path class="st10" d="m260.82,375.46c0.3,2.04 -2.48,7.95 -3.08,10.84c-1.41,6.71 -1.18,12.61 -0.45,19.37c0.08,0.71 0.7,1.87 -0.24,2.36c-2.94,-6.92 -5.78,-13.92 -8.6,-20.9l-1.3,-0.82l-23.83,51.93l-17.22,0l0.13,-1.52c13.14,-28.25 26.51,-56.42 39.29,-84.85c1.55,-1.68 4.68,-1.2 5.8,0.75c1.66,6.71 8.6,16.55 9.51,22.83l-0.01,0.01z" fill="#fafcfc" id="svg_8"/>
  <path class="st5" d="m400.94,378.77c3.74,-0.17 5.49,1.1 7.94,-2.2c3.29,-4.42 1.92,-6.31 9.51,-5.35l-16,23.89c-0.25,1.59 2.82,1 3.86,1.24c12.18,2.83 14.69,20.28 4.74,27.19c-6.13,4.26 -15.46,3.12 -19.96,-2.99c-9.93,-13.47 5.57,-25.01 11.8,-35.87c0.15,-0.75 0.06,-0.76 -0.62,-0.62c-3.22,0.63 -5.9,0.71 -9.2,1.67c-0.59,0.17 -4.85,2.48 -4.34,0.85l17.91,-28.82c0.12,-0.96 -0.04,-0.61 -0.69,-0.7c-2.22,-0.3 -13.49,0.4 -14.39,-0.48c-0.15,-1.67 -0.02,-5.4 2.14,-5.67l21.68,0.48l1.17,0.71l-15.56,26.67l0.01,0z" fill="#da7131" id="svg_9"/>
  <path class="st9" d="m389.61,434.95c0.85,-0.94 0.99,-3.26 2.58,-3.3c0.32,0 3.81,1.95 4.63,2.36c0.27,0.13 0.23,0.75 0.69,0.91c8,2.73 17.39,-1.29 23.46,-6.59c11.49,-10.04 10.23,-30.55 -1.65,-39.86c-1.61,-1.27 -6.67,-2.73 -5.92,-4.98c1.2,-3.63 3.1,-2.93 5.78,-1.48c29.46,15.93 12.77,65.32 -21.19,58.5c-1.11,-0.22 -6.91,-2.15 -7.43,-2.71c-0.22,-0.24 -0.66,-2.31 -0.94,-2.83l-0.01,-0.02z" fill="#da7132" id="svg_10"/>
  <rect class="st3" x="138.62" y="351.86" width="0.47" height="85.45" fill="#0a0b0c" id="svg_11"/>
  <path class="st7" d="m394.06,405.4c5.77,-9.26 20.17,-3 18.08,7.96c-0.78,4.09 -5.79,8.56 -10,8.34c-3.06,-0.16 -6.15,-2.34 -8.01,-4.73c-2.63,-3.39 -2.25,-8.08 -0.08,-11.57l0.01,0z" fill="#9c563d" id="svg_12"/>
  <text fill="#ffffff" stroke="#000" stroke-width="0" x="153.5" y="456" id="svg_13" font-size="12" font-family="Noto Sans JP" text-anchor="start" xml:space="preserve">Part of Network Security Bootcamp - ISEA  III - MeitY</text>
 </g>
</svg>